<svg xmlns="http://www.w3.org/2000/svg" viewBox="0 0 32 32" role="img" aria-label="Pack 13 lucky 13">
  <rect width="32" height="32" rx="7" fill="#0a1f4d"/>
  <rect x="1.25" y="1.25" width="29.5" height="29.5" rx="6" fill="none" stroke="#f5c518" stroke-width="1.25"/>

  <!-- Three-leaf shamrock + stem -->
  <g fill="#2f9e57">
    <ellipse cx="16" cy="11.1" rx="5.15" ry="5.35"/>
    <ellipse cx="10.55" cy="16.35" rx="5.15" ry="5.35"/>
    <ellipse cx="21.45" cy="16.35" rx="5.15" ry="5.35"/>
    <path d="M15.15 19.2c.25 2.8-1.15 5.4-3.55 6.85.35-.05 2.55-.55 3.55-2.55.95 1.95 3.1 2.5 3.5 2.55-2.35-1.4-3.75-4-3.5-6.85z"/>
  </g>

  <!-- 13 drawn as shapes so it stays sharp without webfonts -->
  <g fill="#ffd84d">
    <!-- 1 -->
    <path d="M11.05 13.15l2.55-1.45h1.35v8.55h-1.7v-6.35l-1.35.7z"/>
    <!-- 3 -->
    <path d="M15.55 12.05h4.15c1.55 0 2.55.9 2.55 2.15 0 .85-.45 1.5-1.2 1.85.9.4 1.45 1.15 1.45 2.15 0 1.4-1.15 2.4-2.9 2.4h-4.05v-1.45h3.85c.85 0 1.3-.4 1.3-1.05s-.45-1-1.3-1h-2.85v-1.4h2.7c.75 0 1.2-.4 1.2-.95s-.42-.95-1.2-.95h-3.7z"/>
  </g>
</svg>
